PathFileType	4	(X/Y/Z)	C:/Users/opensim2020/Desktop/walking_exp_matlab/subject02_walking14_straight_02.trc	
DataRate	CameraRate	NumFrames	NumMarkers	Units	OrigDataRate	OrigDataStartFrame	OrigNumFrames	
100.00	100.00	6	41	mm	100.00	810	121	
Frame#	Time	LFHD			RFHD			LBHD			RBHD			C7			T10			CLAV			STRN			RBAK			LSHO			LUPA			LELB			LFRM			LWRA			LWRB			LFIN			RSHO			RUPA			RELB			RFRM			RWRA			RWRB			RFIN			LASI			RASI			LPSI			RPSI			LTHI			LKNE			LTIB			LANK			LHEE			LTOE			RTHI			RKNE			RTIB			RANK			RHEE			RTOE			*39			*40			
		X1	Y1	Z1	X2	Y2	Z2	X3	Y3	Z3	X4	Y4	Z4	X5	Y5	Z5	X6	Y6	Z6	X7	Y7	Z7	X8	Y8	Z8	X9	Y9	Z9	X10	Y10	Z10	X11	Y11	Z11	X12	Y12	Z12	X13	Y13	Z13	X14	Y14	Z14	X15	Y15	Z15	X16	Y16	Z16	X17	Y17	Z17	X18	Y18	Z18	X19	Y19	Z19	X20	Y20	Z20	X21	Y21	Z21	X22	Y22	Z22	X23	Y23	Z23	X24	Y24	Z24	X25	Y25	Z25	X26	Y26	Z26	X27	Y27	Z27	X28	Y28	Z28	X29	Y29	Z29	X30	Y30	Z30	X31	Y31	Z31	X32	Y32	Z32	X33	Y33	Z33	X34	Y34	Z34	X35	Y35	Z35	X36	Y36	Z36	X37	Y37	Z37	X38	Y38	Z38	X39	Y39	Z39	X40	Y40	Z40	X41	Y41	Z41	

1	0.000	-953.97620	659.94250	1705.93591	-1098.20642	669.37885	1697.48853	-942.38062	793.77753	1638.74097	-1084.04199	815.68817	1628.76611	-1007.19714	860.64325	1503.63599	-1015.28790	925.53912	1232.58618	-1018.29492	721.86621	1430.92407	-1045.25085	680.52393	1258.37329	-1071.37354	933.74646	1336.67627	-839.49207	764.99280	1466.28918	-753.56769	823.23193	1278.61072	-734.21680	871.31079	1153.97192	-695.93494	924.35742	1044.43738	-688.04266	941.61694	903.72461	-665.43457	978.98096	939.48517	-641.94147	1000.05115	882.34692	-1195.44873	815.46460	1480.12402	-1321.10828	808.92963	1320.43213	-1386.88672	737.19434	1202.65515	-1411.06348	644.15271	1124.78430	-1395.65527	534.90485	1048.77161	-1435.14929	566.14520	1023.22302	-1440.39294	497.98007	1003.78650	-931.50061	685.55487	964.48132	-1183.27100	748.31488	950.92102	-958.02643	906.70099	1011.16412	-1066.10266	937.06262	1014.34729	-860.21106	666.86432	664.86768	-906.83038	613.34436	477.06223	-908.04761	586.84808	285.71564	-950.03912	491.00876	82.62445	-999.32959	518.48145	41.53686	-966.38226	339.34219	111.75979	-1227.68140	928.51251	677.77313	-1192.05371	996.43933	477.62634	-1194.38501	1108.43542	325.84250	-1164.29346	1192.73401	148.03239	-1105.36499	1233.91357	107.52404	-1200.74695	1072.40991	41.74516	-1033.22705	762.37299	1782.90552	-3360.42896	2845.59399	1034.22217 
2	0.010	-954.82709	645.73157	1705.43762	-1098.93762	655.18781	1696.41882	-942.90350	779.35071	1637.60254	-1084.42688	801.51093	1627.61426	-1007.05530	846.39752	1502.69421	-1015.02435	909.84570	1230.92310	-1018.13245	707.10608	1430.39404	-1045.31689	665.18585	1258.01245	-1071.02686	918.66730	1335.03369	-839.42511	749.97833	1465.83044	-753.44769	810.02710	1278.98145	-735.13281	859.77429	1154.83264	-696.30664	915.19403	1046.43286	-688.19604	934.60065	906.00867	-666.17242	971.21667	942.70074	-642.95831	994.56061	886.32141	-1195.28906	801.21460	1479.34094	-1320.74768	794.73047	1319.59326	-1387.10669	722.59546	1202.43555	-1411.37378	628.41632	1125.93018	-1396.04004	517.81390	1051.96082	-1435.14734	548.79254	1025.52502	-1440.71436	480.36539	1007.66382	-932.57056	667.74207	964.93121	-1184.26379	731.61914	950.64606	-957.22919	889.22510	1010.07404	-1064.88794	919.89996	1012.57721	-861.84631	646.42651	665.33685	-907.81995	596.36420	476.12289	-908.40094	574.33966	283.84460	-950.65546	485.07718	78.14438	-999.55280	512.50720	36.78958	-966.65601	333.06055	103.94080	-1228.59058	912.94177	678.33038	-1194.88892	982.01233	478.61499	-1196.43115	1098.19678	329.83331	-1166.25842	1187.71265	154.76659	-1106.66809	1229.00110	116.23046	-1201.58838	1071.92456	41.57188	-1033.92773	748.35425	1781.95886	-3357.66187	2846.06104	1034.39136 
3	0.020	-955.57471	631.35474	1704.52881	-1099.54407	641.21246	1695.45288	-943.14154	765.28540	1637.08813	-1084.80798	787.49225	1626.59094	-1006.65955	831.94092	1501.71716	-1014.56805	893.96136	1229.14526	-1017.86725	692.13251	1429.78467	-1045.03003	649.55078	1257.79468	-1070.66870	903.53326	1333.23877	-839.35236	734.93750	1465.48645	-753.21539	796.92889	1279.54602	-735.30524	847.98383	1156.03662	-697.26300	904.52887	1048.31494	-689.26489	926.17255	907.39166	-667.31091	962.20209	945.28326	-644.40808	987.29871	889.54382	-1194.80933	786.89764	1478.51489	-1320.21851	780.76874	1318.85693	-1387.02869	708.45410	1202.05029	-1411.40283	613.23901	1126.80566	-1396.20276	501.41116	1054.77966	-1434.84338	532.12897	1027.48242	-1440.83337	463.39499	1010.81726	-933.31909	649.98474	965.26318	-1184.87305	714.32697	950.55963	-956.47949	871.47925	1008.96051	-1063.86133	902.49146	1011.20081	-863.87616	625.56311	665.34192	-908.65833	579.19397	475.01346	-908.63416	562.91766	281.71030	-951.03064	481.43594	73.20584	-999.62402	511.10120	33.48346	-966.72772	329.17346	94.76591	-1229.53528	896.69147	678.78760	-1198.08728	966.67029	479.48044	-1198.81287	1087.03552	333.93958	-1168.15796	1181.71692	161.65294	-1107.69019	1222.68860	125.22340	-1202.65015	1071.48938	41.74892	-1034.69763	734.27869	1780.95984	-3360.44653	2845.29663	1034.31799 
4	0.030	-956.09412	617.21686	1704.08289	-1100.08350	627.23199	1694.18896	-943.28284	751.02344	1636.33496	-1084.86792	773.45422	1625.32202	-1006.19958	817.45416	1500.64673	-1013.75323	877.89331	1227.08887	-1017.30719	677.28522	1429.50061	-1044.44470	633.43048	1257.70508	-1070.29053	888.37976	1331.31604	-838.99377	720.06116	1465.47119	-752.70685	783.49506	1280.25220	-735.50909	835.97278	1157.11804	-697.96991	893.46130	1049.73608	-690.27496	916.61456	908.84290	-668.57990	952.15649	947.21356	-646.62274	979.11963	891.86414	-1194.00183	772.71234	1477.60400	-1319.46533	766.90991	1318.13171	-1386.83862	694.69952	1201.63428	-1411.48535	598.56561	1127.47742	-1396.07947	485.66562	1057.07471	-1434.38135	516.13214	1029.02124	-1440.56567	447.17151	1013.47681	-933.31012	631.73767	965.75830	-1184.74280	696.12793	950.51227	-955.66821	853.53931	1007.76282	-1062.78760	883.71887	1009.55823	-865.46515	605.09094	665.52716	-908.80725	562.33405	473.53964	-909.49274	552.60596	279.22043	-953.51215	478.61224	68.91539	-1002.40240	508.63031	33.98962	-965.74884	324.12277	82.08375	-1230.43445	879.81561	679.07788	-1201.64465	950.45770	480.15604	-1200.61877	1074.90161	337.63535	-1170.06921	1174.75684	168.74159	-1108.78210	1215.26978	134.61162	-1203.70325	1070.88733	41.91980	-1035.43652	720.18732	1780.02625	-3357.53101	2846.10181	1034.39038 
5	0.040	-956.74365	602.62146	1703.44019	-1100.60327	613.06012	1693.26917	-943.47748	736.32666	1635.55200	-1084.77319	759.19012	1624.13879	-1005.34503	802.75909	1499.53723	-1012.50934	861.85669	1225.23999	-1016.59656	662.07349	1429.13342	-1043.61536	617.11182	1257.95630	-1069.15295	872.90912	1329.64587	-838.61896	705.19452	1465.56726	-752.16107	770.25513	1281.37219	-736.00812	823.40161	1157.87024	-698.63684	881.54962	1050.91223	-691.67548	905.88464	909.87677	-670.05597	941.13226	948.52637	-648.93829	969.17847	893.30432	-1192.99426	758.56335	1476.75964	-1318.55591	753.24847	1317.31921	-1386.38696	681.17853	1201.00916	-1410.92664	584.24695	1127.67847	-1395.76880	470.47406	1058.83679	-1433.78796	500.68845	1030.05017	-1440.05090	431.57458	1015.59686	-932.86090	613.84406	966.13409	-1184.02966	677.44659	950.42676	-954.84271	835.55200	1006.83643	-1062.02222	865.60150	1008.38300	-866.95343	584.96136	665.92126	-908.33478	547.08496	472.35431	-913.33063	542.59430	277.44232	-953.04999	471.83514	70.34801	-1002.79736	502.87515	37.90364	-962.60968	314.42941	69.10230	-1231.26917	862.39526	679.13123	-1205.22021	933.04321	480.41058	-1202.97803	1061.82324	341.38666	-1172.22144	1166.44727	175.99400	-1109.93005	1206.49060	144.31146	-1203.79919	1070.11011	41.73262	-1036.10510	706.10168	1779.07251	-3360.44360	2845.47168	1034.33118 
6	0.050	-957.11047	588.18408	1703.96069	-1101.20508	598.73071	1693.15271	-943.37708	721.67657	1635.86597	-1084.72668	744.78400	1623.81970	-1004.50690	789.27765	1499.01831	-1011.31183	845.73297	1224.66467	-1015.71161	646.98328	1429.33362	-1042.45276	601.13635	1258.65112	-1067.59656	857.60303	1328.51819	-837.97363	690.53540	1465.91113	-751.19794	756.67517	1282.17371	-735.59631	810.62579	1158.80359	-699.27673	869.69562	1051.57483	-693.42542	893.95978	910.28906	-671.53650	929.11420	949.16083	-651.63434	958.01428	893.58960	-1192.35681	744.51221	1476.34741	-1317.59912	739.79144	1316.35510	-1385.92065	667.90509	1200.13477	-1410.43787	570.32330	1127.57385	-1395.26831	455.77237	1059.98633	-1432.97729	485.78351	1030.58545	-1439.29346	416.37454	1016.74963	-932.02325	596.97229	966.16199	-1182.45532	658.63806	950.17065	-954.14862	817.68414	1007.01105	-1061.59106	847.95654	1007.49347	-867.65375	566.61865	668.17749	-907.19409	531.96173	473.18796	-916.81976	530.89417	278.53116	-949.42877	461.68439	69.92401	-999.17389	497.11496	40.59093	-963.96118	304.59763	60.40433	-1232.15100	844.37097	678.75525	-1209.13831	914.08588	480.20987	-1205.59900	1047.19214	344.95441	-1174.57910	1156.08203	183.17459	-1111.70459	1195.96082	154.57605	-1203.79834	1068.81445	41.70031	-1036.81189	691.80072	1779.03833	-3360.47461	2845.33496	1034.28125 
